<svg width="16" height="16" viewBox="0 0 16 16" fill="none" xmlns="http://www.w3.org/2000/svg">
<path d="M14.6654 8.00004C14.6654 4.31804 11.6807 1.33337 7.9987 1.33337C4.3167 1.33337 1.33203 4.31804 1.33203 8.00004C1.33203 9.09537 1.5967 10.1534 2.09536 11.1L1.35136 13.96C1.32662 14.0556 1.32725 14.1559 1.35318 14.2511C1.37911 14.3463 1.42946 14.4331 1.49923 14.5028C1.569 14.5726 1.65578 14.623 1.75098 14.6489C1.84619 14.6748 1.94651 14.6755 2.04203 14.6507L4.90203 13.906C5.85714 14.4074 6.92001 14.6684 7.9987 14.6667C11.6807 14.6667 14.6654 11.682 14.6654 8.00004ZM7.9987 5.33337C8.35232 5.33337 8.69146 5.47385 8.94151 5.7239C9.19155 5.97395 9.33203 6.31309 9.33203 6.66671V9.33337C9.33203 9.687 9.19155 10.0261 8.94151 10.2762C8.69146 10.5262 8.35232 10.6667 7.9987 10.6667H5.9987C5.64508 10.6667 5.30594 10.5262 5.05589 10.2762C4.80584 10.0261 4.66536 9.687 4.66536 9.33337V6.66671C4.66536 6.31309 4.80584 5.97395 5.05589 5.7239C5.30594 5.47385 5.64508 5.33337 5.9987 5.33337H7.9987ZM9.9987 8.77471V7.22537L11.1547 6.13071C11.2257 6.06342 11.3148 6.01843 11.4111 6.0013C11.5074 5.98416 11.6066 5.99564 11.6964 6.03431C11.7862 6.07298 11.8627 6.13714 11.9165 6.21885C11.9702 6.30057 11.9988 6.39625 11.9987 6.49404V9.50604C11.9988 9.60384 11.9702 9.69951 11.9165 9.78123C11.8627 9.86294 11.7862 9.9271 11.6964 9.96577C11.6066 10.0044 11.5074 10.0159 11.4111 9.99879C11.3148 9.98165 11.2257 9.93666 11.1547 9.86937L9.9987 8.77471Z" fill="white"/>
</svg>
