<svg width="18" height="18" viewBox="0 0 18 18" fill="none" xmlns="http://www.w3.org/2000/svg">
<path d="M9.41984 15.615C9.29726 15.7025 9.15043 15.7495 8.99984 15.7495C8.84924 15.7495 8.70241 15.7025 8.57984 15.615C4.95809 13.0335 1.11434 7.7235 5.00009 3.8865C6.06648 2.83659 7.50334 2.2487 8.99984 2.25C10.4998 2.25 11.9391 2.83875 12.9996 3.88575C16.8853 7.72275 13.0416 13.032 9.41984 15.615Z" stroke="#A9A9A9" stroke-width="1.4" stroke-linecap="round" stroke-linejoin="round"/>
<path d="M9 9C9.39782 9 9.77936 8.84196 10.0607 8.56066C10.342 8.27936 10.5 7.89782 10.5 7.5C10.5 7.10218 10.342 6.72064 10.0607 6.43934C9.77936 6.15804 9.39782 6 9 6C8.60218 6 8.22064 6.15804 7.93934 6.43934C7.65804 6.72064 7.5 7.10218 7.5 7.5C7.5 7.89782 7.65804 8.27936 7.93934 8.56066C8.22064 8.84196 8.60218 9 9 9Z" stroke="#A9A9A9" stroke-width="1.4" stroke-linecap="round" stroke-linejoin="round"/>
</svg>
