<svg width="18" height="18" viewBox="0 0 18 18" fill="none" xmlns="http://www.w3.org/2000/svg">
<path d="M11.8125 10.875C11.6633 10.875 11.5202 10.9343 11.4148 11.0398C11.3093 11.1452 11.25 11.2883 11.25 11.4375C11.25 11.5867 11.3093 11.7298 11.4148 11.8353C11.5202 11.9407 11.6633 12 11.8125 12H13.6875C13.8367 12 13.9798 11.9407 14.0852 11.8353C14.1907 11.7298 14.25 11.5867 14.25 11.4375C14.25 11.2883 14.1907 11.1452 14.0852 11.0398C13.9798 10.9343 13.8367 10.875 13.6875 10.875H11.8125ZM1.5 6.1875C1.5 5.54104 1.75681 4.92105 2.21393 4.46393C2.67105 4.00681 3.29103 3.75 3.9375 3.75H14.0625C14.3826 3.75 14.6996 3.81305 14.9953 3.93554C15.291 4.05804 15.5597 4.23758 15.7861 4.46393C16.0124 4.69027 16.192 4.95898 16.3145 5.25471C16.437 5.55044 16.5 5.8674 16.5 6.1875V11.8125C16.5 12.1326 16.437 12.4496 16.3145 12.7453C16.192 13.041 16.0124 13.3097 15.7861 13.5361C15.5597 13.7624 15.291 13.942 14.9953 14.0645C14.6996 14.187 14.3826 14.25 14.0625 14.25H3.9375C3.29103 14.25 2.67105 13.9932 2.21393 13.5361C1.75681 13.079 1.5 12.459 1.5 11.8125V6.1875ZM15.375 7.125V6.1875C15.375 5.8394 15.2367 5.50556 14.9906 5.25942C14.7444 5.01328 14.4106 4.875 14.0625 4.875H3.9375C3.5894 4.875 3.25556 5.01328 3.00942 5.25942C2.76328 5.50556 2.625 5.8394 2.625 6.1875V7.125H15.375ZM2.625 8.25V11.8125C2.625 12.537 3.213 13.125 3.9375 13.125H14.0625C14.4106 13.125 14.7444 12.9867 14.9906 12.7406C15.2367 12.4944 15.375 12.1606 15.375 11.8125V8.25H2.625Z" fill="#A9A9A9"/>
</svg>
