<svg width="14" height="15" viewBox="0 0 14 15" fill="none" xmlns="http://www.w3.org/2000/svg">
<path d="M10.0057 9.30503H9.37336L9.14923 9.08891C9.96079 8.14759 10.4068 6.94584 10.4059 5.70297C10.4059 4.67392 10.1008 3.66798 9.52909 2.81236C8.95738 1.95673 8.14478 1.28986 7.19407 0.896055C6.24335 0.502254 5.1972 0.399218 4.18792 0.599976C3.17865 0.800734 2.25157 1.29627 1.52392 2.02392C0.796269 2.75157 0.300734 3.67865 0.099976 4.68792C-0.100782 5.6972 0.00225437 6.74335 0.396055 7.69407C0.789856 8.64478 1.45673 9.45738 2.31236 10.0291C3.16798 10.6008 4.17392 10.9059 5.20297 10.9059C6.49171 10.9059 7.67639 10.4337 8.58891 9.64923L8.80503 9.87336V10.5057L12.8073 14.5L14 13.3073L10.0057 9.30503ZM5.20297 9.30503C3.20984 9.30503 1.60092 7.69611 1.60092 5.70297C1.60092 3.70984 3.20984 2.10092 5.20297 2.10092C7.19611 2.10092 8.80503 3.70984 8.80503 5.70297C8.80503 7.69611 7.19611 9.30503 5.20297 9.30503Z" fill="white"/>
</svg>
