<svg width="50" height="50" viewBox="0 0 50 50" fill="none" xmlns="http://www.w3.org/2000/svg">
<rect width="50" height="50" rx="25" fill="white"/>
<path d="M29.2108 33.551V37C29.2108 37.5523 28.7631 38 28.2108 38H22.1128C21.5605 38 21.1128 37.5523 21.1128 37V33.4454C21.1128 32.7015 20.3294 32.218 19.6644 32.5516L16.6961 34.0407C16.2553 34.2619 15.7191 34.1286 15.4331 33.7268L11.6684 28.4387C11.3415 27.9795 11.4585 27.341 11.9271 27.0276L14.5448 25.2766C15.1723 24.8569 15.1263 23.9199 14.4607 23.5637L12.0089 22.2517C11.5007 21.9798 11.327 21.3355 11.6297 20.845L14.8014 15.7044C15.0735 15.2633 15.6376 15.1032 16.1008 15.3357L19.6644 17.1234C20.3294 17.457 21.1128 16.9735 21.1128 16.2296V13C21.1128 12.4477 21.5605 12 22.1128 12H27.563C28.1153 12 28.563 12.4477 28.563 13V16.1374C28.563 16.9028 29.3879 17.3845 30.0545 17.0082L32.9359 15.382C33.3924 15.1244 33.9703 15.2629 34.2603 15.6995L37.6403 20.7863C37.9778 21.2943 37.7859 21.9836 37.2343 22.244L34.4176 23.574C33.7048 23.9105 33.6434 24.901 34.3093 25.3229L37.9628 27.6381C38.4739 27.962 38.5825 28.6621 38.1935 29.1257L34.2834 33.7843C33.9722 34.1551 33.4401 34.2498 33.0201 34.009L30.7082 32.6835C30.0415 32.3013 29.2108 32.7826 29.2108 33.551Z" stroke="black" stroke-width="2"/>
<path d="M20.4658 25C20.4658 23.7 24.0937 23.635 24.3529 20.775L25.6485 28.9C26.7283 27.4916 30.8313 26.3 30.1834 24.675" stroke="black" stroke-width="2"/>
</svg>
