<svg width="50" height="50" viewBox="0 0 50 50" fill="none" xmlns="http://www.w3.org/2000/svg">
<rect width="50" height="50" rx="25" fill="white"/>
<path d="M32.628 30.674C32.628 31.9073 32.3197 33.0667 31.703 34.152C31.111 35.2373 30.223 36.15 29.039 36.89C27.8797 37.63 26.4983 38.074 24.895 38.222V41.219H22.49V38.222C20.1713 38 18.2967 37.2723 16.866 36.039C15.4353 34.8057 14.72 33.1777 14.72 31.155H19.234C19.308 32.117 19.6163 32.9187 20.159 33.56C20.7017 34.1767 21.4787 34.5713 22.49 34.744V26.604C20.8373 26.1847 19.493 25.7653 18.457 25.346C17.421 24.902 16.533 24.2113 15.793 23.274C15.0777 22.3367 14.72 21.054 14.72 19.426C14.72 17.3787 15.4353 15.689 16.866 14.357C18.2967 13.0003 20.1713 12.211 22.49 11.989V8.992H24.895V11.989C27.0657 12.1863 28.8047 12.877 30.112 14.061C31.444 15.2203 32.1963 16.8237 32.369 18.871H27.855C27.781 18.1063 27.485 17.428 26.967 16.836C26.449 16.2193 25.7583 15.8 24.895 15.578V23.57C26.5477 23.9647 27.892 24.384 28.928 24.828C29.964 25.2473 30.8397 25.9257 31.555 26.863C32.2703 27.7757 32.628 29.046 32.628 30.674ZM19.012 19.204C19.012 20.2153 19.308 21.0047 19.9 21.572C20.5167 22.1393 21.38 22.5957 22.49 22.941V15.467C21.4293 15.5903 20.5783 15.9727 19.937 16.614C19.3203 17.2553 19.012 18.1187 19.012 19.204ZM24.895 34.744C25.9803 34.5713 26.8313 34.1397 27.448 33.449C28.0647 32.7337 28.373 31.8827 28.373 30.896C28.373 29.9093 28.0647 29.1447 27.448 28.602C26.856 28.0347 26.005 27.5783 24.895 27.233V34.744Z" fill="#022C49"/>
</svg>
