<svg width="24" height="24" viewBox="0 0 24 24" fill="none" xmlns="http://www.w3.org/2000/svg">
<path d="M2 12.0019C2 17.5249 6.477 22.0019 12 22.0019C17.523 22.0019 22 17.5249 22 12.0019C22 6.47895 17.523 2.00195 12 2.00195C6.477 2.00195 2 6.47895 2 12.0019Z" stroke="black" stroke-width="1.5" stroke-linecap="round" stroke-linejoin="round"/>
<path d="M12.9999 2.05195C12.9999 2.05195 15.9999 6.00195 15.9999 12.0019C15.9999 18.0019 12.9999 21.952 12.9999 21.952M10.9999 21.952C10.9999 21.952 7.99988 18.0019 7.99988 12.0019C7.99988 6.00195 10.9999 2.05195 10.9999 2.05195M2.62988 15.5019H21.3699M2.62988 8.50195H21.3699" stroke="black" stroke-width="1.5" stroke-linecap="round" stroke-linejoin="round"/>
</svg>
