<svg width="60" height="59" viewBox="0 0 60 59" fill="none" xmlns="http://www.w3.org/2000/svg">
<circle cx="30" cy="29.5" r="29.5" fill="#022C49"/>
<path fill-rule="evenodd" clip-rule="evenodd" d="M29.2775 10.1447C28.6912 10.3747 28.5947 11.2654 29.1365 11.54C29.9306 11.9556 30.7025 11.0427 30.1162 10.3896C29.9084 10.1595 29.515 10.0482 29.2775 10.1447ZM25.418 10.6535C20.0891 12.0637 15.7844 16.4945 14.4707 21.9274C14.3297 22.4914 14.248 22.6992 14.1219 22.7809C13.7656 23.0184 13.4539 23.3301 13.2832 23.627C13.068 23.9981 10.7895 29.6461 10.641 30.1656C10.5742 30.4106 10.5371 30.9152 10.5445 31.6871V32.8375L11.4129 35.9176C11.9398 37.7805 12.2812 39.1238 12.2812 39.3316C12.2812 39.5395 11.9473 40.8309 11.3906 42.7606C10.9008 44.4602 10.5 45.9742 10.5 46.1227C10.5 46.4715 10.5965 46.6496 10.8711 46.7906C11.1754 46.9465 17.9367 46.9613 18.3152 46.7981C18.575 46.6941 18.5898 46.6719 19.1316 45.2988C19.4879 44.4008 19.9035 43.718 20.5641 42.9684C21.4027 42.0184 21.9742 40.9496 22.1598 39.9996C22.2117 39.7324 22.2785 39.4949 22.3008 39.4578C22.3305 39.4281 22.6645 39.5543 23.0504 39.7324C24.3863 40.3633 26.0859 40.8457 27.6816 41.0387C28.5352 41.1426 30.5391 41.1426 31.3926 41.0387C33.0031 40.8457 34.6879 40.3707 36.0016 39.7473C36.4691 39.5246 36.7141 39.443 36.7289 39.5024C36.7437 39.5543 36.7957 39.7918 36.8477 40.0367C37.0332 40.9645 37.6121 42.0406 38.4359 42.9684C39.0965 43.718 39.5121 44.4008 39.8684 45.2988C40.4102 46.6719 40.425 46.6941 40.6848 46.7981C41.0633 46.9613 47.8246 46.9465 48.1289 46.7906C48.4035 46.6496 48.5 46.4715 48.5 46.1227C48.5 45.9742 48.0992 44.4602 47.6094 42.7531C47.0602 40.8457 46.7188 39.532 46.7188 39.3242C46.7188 39.1238 47.0602 37.7731 47.5871 35.9176L48.4555 32.8375V31.65C48.4629 30.7074 48.4332 30.3734 48.3293 30.032C48.0621 29.1859 45.8281 23.7754 45.6203 23.4859C45.509 23.3227 45.2789 23.0926 45.1156 22.9664C44.8336 22.7512 44.8113 22.7066 44.6109 21.8902C43.5645 17.5559 40.5215 13.7484 36.5063 11.7371C35.1555 11.0617 33.1293 10.4086 32.6246 10.4902C32.2461 10.5496 32.0234 10.8242 32.0234 11.2473C32.0234 11.6629 32.2312 11.9004 32.6988 12.0191C34.3391 12.4274 36.343 13.3328 37.5379 14.1938C39.5195 15.6262 40.9371 17.2664 41.991 19.3668C42.466 20.3094 43.082 21.9274 43.082 22.2317C43.082 22.2836 42.993 22.3504 42.8816 22.3801C41.4937 22.6695 40.6328 23.7457 40.6328 25.1633C40.6328 25.7496 40.6477 25.8016 41.4566 27.85C41.6491 28.3391 41.8295 28.796 41.9745 29.1631L41.9751 29.1647C42.1708 29.6602 42.3016 29.9916 42.3102 30.0172C42.3324 30.0617 42.0207 30.0914 41.4715 30.0914C40.6773 30.0914 40.5586 30.1137 40.1727 30.2918C39.7125 30.507 39.1559 30.9746 38.9332 31.3457C38.7922 31.5758 37.1965 36.1922 36.9516 37.0754L36.9498 37.0817C36.8254 37.5282 36.8229 37.537 36.2984 37.8399C32.2164 40.1703 26.7316 40.1481 22.6645 37.7731C22.234 37.5207 22.1375 37.4242 22.1004 37.2313C22.0707 37.0977 21.6402 35.784 21.143 34.2996C20.5418 32.5481 20.1484 31.4942 20.0074 31.2863C19.3691 30.3586 18.2262 29.8613 17.1723 30.0543C16.9199 30.0988 16.7047 30.1285 16.6898 30.1137C16.6824 30.0988 17.0535 29.1192 17.5211 27.9391L18.3746 25.7867L18.3449 25.0445C18.3227 24.4137 18.293 24.243 18.1223 23.909C17.7289 23.1594 17.1055 22.6324 16.3707 22.4395C16.059 22.3578 16.0293 22.3356 16.0441 22.15C16.0961 21.4746 16.9719 19.4113 17.7215 18.2164C18.7457 16.5688 20.3711 14.9285 22.041 13.8598C23.1246 13.1621 24.7574 12.4422 25.9746 12.1231C26.65 11.9524 26.8059 11.841 26.9172 11.4922C27.0285 11.0988 26.8578 10.7203 26.4941 10.5645C26.4732 10.556 26.4541 10.5481 26.4363 10.5407C26.3691 10.5129 26.3215 10.4931 26.272 10.4834C26.1517 10.4597 26.02 10.4945 25.5684 10.6138C25.5218 10.6262 25.4717 10.6394 25.418 10.6535ZM16.3262 24.1465C16.4672 24.2578 16.6379 24.4508 16.7047 24.577C16.9422 25.0297 16.8754 25.2895 15.8957 27.7609C15.3836 29.0524 14.9086 30.3141 14.8418 30.5664C14.6711 31.2344 14.6266 32.1027 14.723 32.7856C14.8047 33.3496 15.7621 36.7414 15.9254 37.0383C16.1332 37.4391 16.816 37.4836 17.15 37.1274C17.4172 36.8379 17.3801 36.5188 16.8457 34.7227C16.5785 33.832 16.3633 32.9859 16.3633 32.8375C16.3633 32.4887 16.6008 32.0359 16.8902 31.8356C17.4023 31.4645 18.0406 31.5238 18.5082 31.9766C18.7605 32.2215 18.857 32.4441 19.577 34.5965C20.5566 37.4836 20.668 37.9067 20.668 38.7305C20.668 40.1109 20.3785 40.727 18.8941 42.5082C18.3078 43.2133 17.9887 43.7848 17.6621 44.6754L17.4395 45.3063L14.8566 45.3285L12.2738 45.3434L12.3184 45.1875C12.348 45.0984 12.7043 43.8738 13.1125 42.4563L13.8547 39.8883L13.8176 39.1832C13.7879 38.5672 13.684 38.0996 12.9195 35.4055C12.1105 32.5035 12.0586 32.2883 12.0586 31.6574C12.0586 31.2863 12.1031 30.8113 12.1625 30.5961C12.3035 30.0617 14.5004 24.6438 14.6785 24.384C15.0273 23.8867 15.8289 23.768 16.3262 24.1465ZM43.8687 24.0352C44.0395 24.1094 44.2398 24.2727 44.3215 24.384C44.5293 24.6957 46.7559 30.2324 46.8672 30.7297C46.9191 30.9746 46.9488 31.4274 46.9266 31.843C46.8969 32.4516 46.7855 32.9266 46.0508 35.5094C45.316 38.1145 45.2121 38.5672 45.1824 39.1832L45.1453 39.8883L45.8875 42.4563C46.2957 43.8738 46.652 45.0984 46.6816 45.1875L46.7262 45.3434L44.1434 45.3285L41.5605 45.3063L41.3379 44.6754C41.0113 43.7848 40.6922 43.2133 40.1059 42.5082C38.8961 41.0535 38.6066 40.5711 38.3617 39.6285C38.2281 39.1164 38.2504 38.2481 38.4137 37.6617C38.6957 36.6152 40.2395 32.2289 40.3879 32.0582C40.618 31.7762 41.0262 31.5981 41.427 31.5981C42.0504 31.5981 42.6367 32.1992 42.6367 32.8449C42.6367 32.9934 42.4215 33.8469 42.1543 34.7375C41.6199 36.5336 41.5828 36.8379 41.85 37.1274C42.184 37.4836 42.8668 37.4391 43.0746 37.0457C43.2379 36.734 44.1879 33.3645 44.277 32.8004C44.3809 32.0582 44.3289 31.1824 44.1285 30.4625C44.0469 30.1731 43.5719 28.9262 43.0746 27.6793C42.1246 25.2895 42.0578 25.0297 42.2953 24.577C42.5996 23.9906 43.2676 23.7606 43.8687 24.0352ZM26.5387 17.4821C26.6203 17.3782 26.7984 17.2595 26.9246 17.2224C27.2883 17.1185 31.6375 17.1333 31.9492 17.2372C32.4465 17.4079 32.4688 17.5341 32.4688 20.1614V22.4845H34.8512C36.3355 22.4845 37.2855 22.5142 37.3746 22.5587C37.716 22.7442 37.7383 22.915 37.7383 25.4903C37.7383 28.0064 37.7234 28.1103 37.4117 28.3626C37.2707 28.4814 37.0184 28.4962 34.866 28.4962H32.4688V30.7896C32.4688 32.2294 32.4391 33.1571 32.3871 33.3056C32.2313 33.7657 32.2164 33.7657 29.3961 33.7657H26.8355L26.6277 33.5876L26.4199 33.4095L26.3977 30.9528L26.3754 28.4962H23.9633H21.5437L21.3285 28.281L21.1133 28.0657V25.4903V22.915L21.3285 22.6997L21.5437 22.4845H23.9633H26.3828V20.0798C26.3828 17.7716 26.3902 17.6751 26.5387 17.4821ZM30.9102 23.5755V21.1411V18.6993H29.4258H27.9414V21.0521C27.9414 23.6497 27.934 23.6942 27.4961 23.9095C27.266 24.0282 26.9766 24.0431 24.9578 24.0431H22.6719V25.4903V26.9302L25.084 26.9524L27.4961 26.9747L27.6965 27.1825L27.9043 27.3829L27.9266 29.8321L27.9488 32.2814H29.4258H30.9102V29.847C30.9102 27.4794 30.9176 27.4052 31.066 27.2419C31.1477 27.1528 31.3035 27.0489 31.4074 27.0044C31.5039 26.9673 32.6246 26.9376 33.8863 26.9376H36.1797V25.4903V24.0431H33.9605C32.7434 24.0431 31.6449 24.0208 31.5113 23.9985C31.3852 23.9689 31.1996 23.865 31.0957 23.761L30.9102 23.5755Z" fill="white"/>
</svg>
