<svg width="50" height="50" viewBox="0 0 50 50" fill="none" xmlns="http://www.w3.org/2000/svg">
<rect width="50" height="50" rx="25" fill="white"/>
<g clip-path="url(#clip0_9_5943)">
<path d="M16.332 33.6676V30.6342C16.332 30.0203 16.4902 29.4563 16.8065 28.9421C17.1229 28.4278 17.5425 28.0349 18.0654 27.7634C19.1848 27.2037 20.3223 26.7841 21.4779 26.5046C22.6334 26.2251 23.807 26.0849 24.9987 26.0842C25.3598 26.0842 25.7209 26.0979 26.082 26.1254C26.4431 26.1528 26.8043 26.1933 27.1654 26.2467V33.6676H16.332ZM24.9987 25.0009C23.807 25.0009 22.7869 24.5766 21.9383 23.728C21.0897 22.8794 20.6654 21.8592 20.6654 20.6676C20.6654 19.4759 21.0897 18.4558 21.9383 17.6071C22.7869 16.7585 23.807 16.3342 24.9987 16.3342C26.1904 16.3342 27.2105 16.7585 28.0591 17.6071C28.9077 18.4558 29.332 19.4759 29.332 20.6676C29.332 21.8592 28.9077 22.8794 28.0591 23.728C27.2105 24.5766 26.1904 25.0009 24.9987 25.0009ZM31.4987 38.0009V32.5842H29.332V26.0842H35.832L33.6654 30.4176H35.832L31.4987 38.0009Z" fill="black"/>
</g>
<defs>
<clipPath id="clip0_9_5943">
<rect width="26" height="26" fill="white" transform="translate(12 12)"/>
</clipPath>
</defs>
</svg>
