<svg width="24" height="25" viewBox="0 0 24 25" fill="none" xmlns="http://www.w3.org/2000/svg">
<path d="M12 22.5005C9.68333 21.9172 7.77067 20.5878 6.262 18.5125C4.75333 16.4372 3.99933 14.1332 4 11.6005V5.50049L12 2.50049L20 5.50049V11.6005C20 13.0172 19.7583 14.3798 19.275 15.6885C18.7917 16.9972 18.1 18.1512 17.2 19.1505L14 15.9505C13.7 16.1338 13.3793 16.2715 13.038 16.3635C12.6967 16.4555 12.3507 16.5012 12 16.5005C10.9 16.5005 9.95833 16.1088 9.175 15.3255C8.39167 14.5422 8 13.6005 8 12.5005C8 11.4005 8.39167 10.4588 9.175 9.67549C9.95833 8.89216 10.9 8.50049 12 8.50049C13.1 8.50049 14.0417 8.89216 14.825 9.67549C15.6083 10.4588 16 11.4005 16 12.5005C16 12.8672 15.9543 13.2215 15.863 13.5635C15.7717 13.9055 15.634 14.2345 15.45 14.5505L16.95 16.0505C17.2833 15.3672 17.5417 14.6505 17.725 13.9005C17.9083 13.1505 18 12.3838 18 11.6005V6.87549L12 4.62549L6 6.87549V11.6005C6 13.6172 6.56667 15.4505 7.7 17.1005C8.83333 18.7505 10.2667 19.8505 12 20.4005C12.4333 20.2672 12.846 20.0965 13.238 19.8885C13.63 19.6805 14.0173 19.4345 14.4 19.1505L15.8 20.5505C15.25 21.0005 14.6543 21.3922 14.013 21.7255C13.3717 22.0588 12.7007 22.3172 12 22.5005ZM12 14.5005C12.55 14.5005 13.021 14.3048 13.413 13.9135C13.805 13.5222 14.0007 13.0512 14 12.5005C13.9993 11.9498 13.8037 11.4792 13.413 11.0885C13.0223 10.6978 12.5513 10.5018 12 10.5005C11.4487 10.4992 10.978 10.6952 10.588 11.0885C10.198 11.4818 10.002 11.9525 10 12.5005C9.998 13.0485 10.194 13.5195 10.588 13.9135C10.982 14.3075 11.4527 14.5032 12 14.5005Z" fill="black"/>
</svg>
