<svg width="24" height="24" viewBox="0 0 24 24" fill="none" xmlns="http://www.w3.org/2000/svg">
<path d="M21 12.001C21.003 13.7877 20.4715 15.5346 19.474 17.017C18.6514 18.2439 17.5391 19.2493 16.2355 19.9442C14.9319 20.639 13.4772 21.002 12 21.001C10.5228 21.002 9.06808 20.639 7.76451 19.9442C6.46093 19.2493 5.34865 18.2439 4.526 17.017C3.74273 15.8494 3.2439 14.5145 3.06951 13.1194C2.89511 11.7243 3.05 10.3077 3.52175 8.98326C3.9935 7.65879 4.769 6.46327 5.78607 5.49253C6.80314 4.52179 8.0335 3.80284 9.37851 3.39331C10.7235 2.98378 12.1458 2.89507 13.5312 3.13428C14.9167 3.37349 16.2269 3.93397 17.3567 4.77079C18.4865 5.60761 19.4046 6.6975 20.0373 7.95308C20.67 9.20865 20.9997 10.595 21 12.001Z" stroke="black" stroke-width="1.5"/>
<path d="M13.2501 9.00097C13.2501 9.69097 12.6901 10.251 12.0001 10.251V11.751C12.7294 11.751 13.4289 11.4612 13.9446 10.9455C14.4603 10.4298 14.7501 9.73032 14.7501 9.00097H13.2501ZM12.0001 10.251C11.3101 10.251 10.7501 9.69097 10.7501 9.00097H9.25008C9.25008 9.73032 9.53981 10.4298 10.0555 10.9455C10.5713 11.4612 11.2707 11.751 12.0001 11.751V10.251ZM10.7501 9.00097C10.7501 8.31097 11.3101 7.75097 12.0001 7.75097V6.25097C11.2707 6.25097 10.5713 6.5407 10.0555 7.05643C9.53981 7.57215 9.25008 8.27163 9.25008 9.00097H10.7501ZM12.0001 7.75097C12.6901 7.75097 13.2501 8.31097 13.2501 9.00097H14.7501C14.7501 8.27163 14.4603 7.57215 13.9446 7.05643C13.4289 6.5407 12.7294 6.25097 12.0001 6.25097V7.75097ZM5.16608 17.857L4.44708 17.643L4.33008 18.035L4.59708 18.345L5.16608 17.857ZM18.8341 17.857L19.4041 18.346L19.6701 18.036L19.5531 17.643L18.8341 17.857ZM9.00008 15.751H15.0001V14.251H9.00008V15.751ZM9.00008 14.251C7.97718 14.251 6.98159 14.5811 6.16131 15.1923C5.34102 15.8034 4.73983 16.6629 4.44708 17.643L5.88508 18.071C6.08561 17.4006 6.49701 16.8128 7.05818 16.3949C7.61936 15.9769 8.30037 15.7511 9.00008 15.751V14.251ZM12.0001 20.251C10.8095 20.2523 9.63279 19.9954 8.55116 19.4978C7.46954 19.0002 6.50874 18.2739 5.73508 17.369L4.59708 18.345C5.51154 19.4139 6.64692 20.2729 7.92497 20.8608C9.20301 21.4486 10.5933 21.7523 12.0001 21.751V20.251ZM15.0001 15.751C16.4701 15.751 17.7151 16.729 18.1151 18.071L19.5531 17.643C19.2603 16.6629 18.6591 15.8034 17.8388 15.1923C17.0186 14.5811 16.023 14.251 15.0001 14.251V15.751ZM18.2651 17.369C17.4914 18.2739 16.5306 19.0002 15.449 19.4978C14.3674 19.9954 13.1907 20.2523 12.0001 20.251V21.751C13.4068 21.7523 14.7971 21.4486 16.0752 20.8608C17.3532 20.2729 18.4896 19.4149 19.4041 18.346L18.2651 17.369Z" fill="black"/>
</svg>
