<svg width="21" height="19" viewBox="0 0 21 19" fill="none" xmlns="http://www.w3.org/2000/svg">
<ellipse cx="10.5" cy="9.5" rx="10" ry="9.5" fill="#022C49"/>
<path d="M13.5775 8.215L9.14801 12.0542C9.10943 12.0878 9.06359 12.1144 9.01312 12.1326C8.96264 12.1507 8.90852 12.1601 8.85387 12.1601C8.79921 12.1601 8.7451 12.1507 8.69462 12.1326C8.64415 12.1144 8.5983 12.0878 8.55973 12.0542L6.62184 10.3746C6.58321 10.3411 6.55257 10.3013 6.53166 10.2576C6.51076 10.2139 6.5 10.167 6.5 10.1196C6.5 10.0723 6.51076 10.0254 6.53166 9.98164C6.55257 9.9379 6.58321 9.89815 6.62184 9.86467C6.66047 9.83119 6.70632 9.80463 6.75679 9.78651C6.80726 9.76839 6.86135 9.75907 6.91598 9.75907C6.97061 9.75907 7.0247 9.76839 7.07517 9.78651C7.12564 9.80463 7.1715 9.83119 7.21013 9.86467L8.85421 11.2897L12.9899 7.7057C13.0679 7.63808 13.1737 7.6001 13.284 7.6001C13.3943 7.6001 13.5001 7.63808 13.5782 7.7057C13.6562 7.77332 13.7 7.86503 13.7 7.96065C13.7 8.05627 13.6562 8.14798 13.5782 8.2156L13.5775 8.215Z" fill="white"/>
</svg>
